# xmcd CD database file
#
# Track frame offsets:
#	187
#	9830
#	26230
#	35477
#	51355
#	63432
#	74095
#	90927
#	102290
#	117420
#	129100
#	141665
#	154272
#	167470
#	177575
#	191705
#	205047
#	222727
#	236107
#	246290
#
# Disc length: 3446 seconds
#
# Revision: 0
# Processed by: cddbd v1.4PL0 Copyright (c) Steve Scherf et al.
# Submitted via: CDex 1.50
#
DISCID=2c0d7414
DTITLE=Various Artist - Treasury of Country Inspirational Favourites 3
DYEAR=1900
DGENRE=Country
TTITLE0=Chuck Wagon Gang - He's Got The Whole World In His hands
TTITLE1=Merle Haggard - Swing Low, Sweet Chariot
TTITLE2=Anita Kerr Singers - Ev'ry Time I Feel The Spirit
TTITLE3=Sonny James - When They Ring Them Golden Bells
TTITLE4=Elvis Presley - Joshua Fit The Battle of Jericho
TTITLE5=Roy Drusky - Shall We Gather at the River?
TTITLE6=Red Foley - When The Saints Go Marching In
TTITLE7=Louvin Brothers - This Little Light of Mine
TTITLE8=Patti Page - Steal Away
TTITLE9=George Beverley Shea - Deep River
TTITLE10=Statler Brothers - In The Sweet By and by
TTITLE11=Jim Reeves - This World Is Not My Home
TTITLE12=Dolly Parton - Golden Streets of Glory
TTITLE13=Chuck Wagon Gang - When The Roll Is Called Up Yonder
TTITLE14=Willie Nelson - Goin' Home
TTITLE15=Loretta Lynn - Ten Thousand Angels
TTITLE16=Dolly Parton - Heaven's Just A Prayer Away
TTITLE17=Elvis Presley - Mansion Over the Hilltop
TTITLE18=Chuck Wagon Gang - I'll Fly Away
TTITLE19=George Hamilton IV - Life's Railway to Heaven
EXTD=
EXTT0=
EXTT1=
EXTT2=
EXTT3=
EXTT4=
EXTT5=
EXTT6=
EXTT7=
EXTT8=
EXTT9=
EXTT10=
EXTT11=
EXTT12=
EXTT13=
EXTT14=
EXTT15=
EXTT16=
EXTT17=
EXTT18=
EXTT19=
PLAYORDER=
